<mxfile host="app.diagrams.net" agent="Mozilla/5.0 (Windows NT 10.0; Win64; x64) AppleWebKit/537.36 (KHTML, like Gecko) Chrome/130.0.0.0 Safari/537.36" version="24.8.4">
  <diagram name="Page-1" id="PJrWZmXLRWU3NcH7N86H">
    <mxGraphModel dx="1434" dy="772" grid="1" gridSize="10" guides="1" tooltips="1" connect="1" arrows="1" fold="1" page="1" pageScale="1" pageWidth="850" pageHeight="1100" math="0" shadow="0">
      <root>
        <mxCell id="0" />
        <mxCell id="1" parent="0" />
        <mxCell id="GWI_aTMabxwM7ntHCNbu-1" value="GAME START" style="ellipse;whiteSpace=wrap;html=1;aspect=fixed;" vertex="1" parent="1">
          <mxGeometry x="130" y="140" width="110" height="110" as="geometry" />
        </mxCell>
        <mxCell id="GWI_aTMabxwM7ntHCNbu-3" value="" style="endArrow=classic;html=1;rounded=0;exitX=1.018;exitY=0.436;exitDx=0;exitDy=0;exitPerimeter=0;" edge="1" parent="1" source="GWI_aTMabxwM7ntHCNbu-1">
          <mxGeometry width="50" height="50" relative="1" as="geometry">
            <mxPoint x="400" y="420" as="sourcePoint" />
            <mxPoint x="320" y="250" as="targetPoint" />
            <Array as="points">
              <mxPoint x="320" y="188" />
            </Array>
          </mxGeometry>
        </mxCell>
        <mxCell id="GWI_aTMabxwM7ntHCNbu-4" value="LEVEL" style="ellipse;whiteSpace=wrap;html=1;" vertex="1" parent="1">
          <mxGeometry x="260" y="250" width="120" height="80" as="geometry" />
        </mxCell>
        <mxCell id="GWI_aTMabxwM7ntHCNbu-6" value="" style="endArrow=classic;html=1;rounded=0;exitX=0.5;exitY=1;exitDx=0;exitDy=0;" edge="1" parent="1" source="GWI_aTMabxwM7ntHCNbu-4">
          <mxGeometry width="50" height="50" relative="1" as="geometry">
            <mxPoint x="400" y="420" as="sourcePoint" />
            <mxPoint x="320" y="390" as="targetPoint" />
            <Array as="points">
              <mxPoint x="320" y="370" />
            </Array>
          </mxGeometry>
        </mxCell>
        <mxCell id="GWI_aTMabxwM7ntHCNbu-11" style="edgeStyle=orthogonalEdgeStyle;rounded=0;orthogonalLoop=1;jettySize=auto;html=1;exitX=0.5;exitY=1;exitDx=0;exitDy=0;entryX=0.5;entryY=0;entryDx=0;entryDy=0;" edge="1" parent="1" source="GWI_aTMabxwM7ntHCNbu-7" target="GWI_aTMabxwM7ntHCNbu-8">
          <mxGeometry relative="1" as="geometry" />
        </mxCell>
        <mxCell id="GWI_aTMabxwM7ntHCNbu-7" value="GAMEPLAY" style="ellipse;whiteSpace=wrap;html=1;" vertex="1" parent="1">
          <mxGeometry x="260" y="390" width="120" height="80" as="geometry" />
        </mxCell>
        <mxCell id="GWI_aTMabxwM7ntHCNbu-12" style="edgeStyle=orthogonalEdgeStyle;rounded=0;orthogonalLoop=1;jettySize=auto;html=1;exitX=0;exitY=0.5;exitDx=0;exitDy=0;" edge="1" parent="1" source="GWI_aTMabxwM7ntHCNbu-8">
          <mxGeometry relative="1" as="geometry">
            <mxPoint x="200" y="600" as="targetPoint" />
            <Array as="points">
              <mxPoint x="200" y="550" />
            </Array>
          </mxGeometry>
        </mxCell>
        <mxCell id="GWI_aTMabxwM7ntHCNbu-13" style="edgeStyle=orthogonalEdgeStyle;rounded=0;orthogonalLoop=1;jettySize=auto;html=1;exitX=1;exitY=0.5;exitDx=0;exitDy=0;" edge="1" parent="1" source="GWI_aTMabxwM7ntHCNbu-8">
          <mxGeometry relative="1" as="geometry">
            <mxPoint x="440" y="600" as="targetPoint" />
          </mxGeometry>
        </mxCell>
        <mxCell id="GWI_aTMabxwM7ntHCNbu-8" value="ENDING" style="rhombus;whiteSpace=wrap;html=1;" vertex="1" parent="1">
          <mxGeometry x="280" y="510" width="80" height="80" as="geometry" />
        </mxCell>
        <mxCell id="GWI_aTMabxwM7ntHCNbu-19" value="" style="edgeStyle=orthogonalEdgeStyle;rounded=0;orthogonalLoop=1;jettySize=auto;html=1;" edge="1" parent="1" source="GWI_aTMabxwM7ntHCNbu-14" target="GWI_aTMabxwM7ntHCNbu-18">
          <mxGeometry relative="1" as="geometry" />
        </mxCell>
        <mxCell id="GWI_aTMabxwM7ntHCNbu-14" value="LOST" style="ellipse;whiteSpace=wrap;html=1;" vertex="1" parent="1">
          <mxGeometry x="140" y="600" width="120" height="80" as="geometry" />
        </mxCell>
        <mxCell id="GWI_aTMabxwM7ntHCNbu-17" style="edgeStyle=orthogonalEdgeStyle;rounded=0;orthogonalLoop=1;jettySize=auto;html=1;exitX=0.5;exitY=1;exitDx=0;exitDy=0;entryX=0.5;entryY=0;entryDx=0;entryDy=0;" edge="1" parent="1" source="GWI_aTMabxwM7ntHCNbu-15" target="GWI_aTMabxwM7ntHCNbu-16">
          <mxGeometry relative="1" as="geometry" />
        </mxCell>
        <mxCell id="GWI_aTMabxwM7ntHCNbu-15" value="WIN" style="ellipse;whiteSpace=wrap;html=1;" vertex="1" parent="1">
          <mxGeometry x="380" y="600" width="120" height="80" as="geometry" />
        </mxCell>
        <mxCell id="GWI_aTMabxwM7ntHCNbu-16" value="FINISH" style="ellipse;whiteSpace=wrap;html=1;aspect=fixed;" vertex="1" parent="1">
          <mxGeometry x="400" y="740" width="80" height="80" as="geometry" />
        </mxCell>
        <mxCell id="GWI_aTMabxwM7ntHCNbu-18" value="GAME OVER" style="ellipse;whiteSpace=wrap;html=1;" vertex="1" parent="1">
          <mxGeometry x="160" y="740" width="80" height="80" as="geometry" />
        </mxCell>
      </root>
    </mxGraphModel>
  </diagram>
</mxfile>
